/* XPM */
static char *result[] = {
/* columns rows colors chars-per-pixel */
"64 64 38 1 ",
"  c #241402",
". c #291602",
"X c #2E1902",
"o c #331C02",
"O c #391F02",
"+ c #3D2102",
"@ c #432402",
"# c #482702",
"$ c #4B2902",
"% c #542E03",
"& c #582F01",
"* c #573004",
"= c #5D3203",
"- c #623502",
"; c #673802",
": c #6A3A02",
"> c #733E00",
", c #774103",
"< c #7C4405",
"1 c #804605",
"2 c #854904",
"3 c #8C4D05",
"4 c #924F03",
"5 c #955205",
"6 c #9C5505",
"7 c #9E5806",
"8 c #A35700",
"9 c #A45903",
"0 c #AB5D02",
"q c #B05F01",
"w c #AF6005",
"e c #B46203",
"r c #BB6603",
"t c #BF6905",
"y c #C26A04",
"u c #C96D03",
"i c #CD7004",
"p c #D07205",
/* pixels */
"o----=---==.----=----O%------=--#O--------@O-------=--X;----=---",
"=iuuuuuuuue+uuuuuuuur-qiuuuuuuuu>-iuyuuuuu>;iuuuuuuuye$iyuuuuuur",
"=y887888889ouq8888890=0w88887880:-r8888880;-r888888887#i88888899",
"=y888888889oy08888899=0q88888880;-r8888890;-r888888889#i98888809",
"*0777777775o097769775%4967777779=*07767779*&9769777773@077777794",
"o$$$$$@$$$#X$$$$$+@$$O@%$$$@#$$$+O$$$$@+$$OO$$$$@@$$$@X$##$$+@$#",
"eeeee3-reeeeeeee0*9qqqqqee0$9rweeeeeee>$rqrwqeqr:-reeeeeeee0+7ee",
"0000e3:u00000000q$0r0qqq000@tr0w00000e:*yq000qqq-:y0000e00e9@0ww",
"888803:y888888889%9q9888990@yq88899880:%y888888q-:r988888899@008",
"090902;y099008809%9q9999999@rq99999000-&r990099q-:r990909009@909",
"%*&*&$O&***%**&*%o%=******%X&&&&*%&&=&Oo*&&*=***OO*********%.%**",
"O>>>>>>>>>:o>>>>>>>>>#;>>>>>>>>>%@>>>>>>>>%O>>>>>>>>>>o>>>>>>>>>",
"=iryqyryrr0oiyrrqyrqq=0uyqyyyrry;-urrrrrry:-urqyyqyye0$iyrrrrry0",
"=y889898999ouq8899999=9q88888880;-r8888890;-y989888899$u88898809",
"-i00qqqq0q0ourqqqqqq0=0y0q0qqqqq;-yqqqqqqr--yqqq0q0q09#i0qq0qqe9",
"%6555555553X655555553%3655555555*%75554545=%6555555552@854555553",
"#%%%$$O%%$%$$%%%$o#%$$$%*%$o$%$%$$%%$$+X%%$$%%%$+o%%%$$%$%%$.$%$",
"yqrrr4-yrrrrrrqyq&9rrrrrrqq$qyrryrrqyy>$yrryqyqy::yqyqrryqyq+9yr",
"888803:u888888880%8q0888880@tq98888890:*r889888q;:y888898808@008",
"888803;u888988889%0q888899w@rq08888990;%r8888880-:y888998808@088",
"999981-0999989995$508889995@0999899899-%08899999=;0999999995+588",
"$**=%$+&*&%$**&**O$*%%%%***o%*&&%$%%**@O%%%$***%+O****$*****o$&&",
"%qqqqqqqqw8O0qqqq0qq0-4qqqqqqqqq>&qqqqqqq0:=qqqqqqqq09@q0qqqqqq9",
"=uqqrqqqww0outqqeeww0=0yeeeewqqq;-uqqrqqqy;-pqqqqqrqq0#iqqweeqr0",
"=u888888889Xuq9898889=0w08889980;-r9988880;-y888888889$u99988899",
"=y000000009oyq0000009=0e0000000q;-y000800q;-r000000098#u000000q9",
"o&&&======* -==&==&=%o%==&======Oo==*===&=Oo=*==&====*.-=======*",
"-----%O--=-&-&---o%-=-==--=o&=-=-=-=--@X--===--=#O-=====-=-=.&==",
"yryyy4;pttytttyrw*0utttyytw@yuytyyyyyy:*iyyyryyu::pyyyyytyuq+qyy",
"888803:u888888889%0q888988w@tq99686890;&y868999q-:r988689999@099",
"0000q3;u000000000%0e0000000@te0000000q:*y000000q-:y0000090q0+0qq",
"66667<=9666666664$376666565@6766666669=%66666669*-9666666665+396",
"o%#$##@%#$$X##$$$@#$$O@$#%######+o$#$%@+$$+o##$$#@$$$#o%$#$$+%$$",
"%rqqeeqqee9+etqqrqqq0-6teqqqqrqr:=yqqqqqrq>=reqqqrqqq9@qrqqqqqq0",
"=y800080090ouq0000000*0q00000000:-r000q000;-t00000q009#i0000000w",
"-y889999896opq8696999=qq89888960;-r8889990;-t968889996#i69889609",
"=r000009006orq0000006&9q009w000w-=e9900900-=e000000005@t09000006",
"o&%%*=%*%*$ %&**%%**%o$*%**%%=%*Oo**&&****Oo*%**%%%**$.=****%**$",
"999991=9966986696$269669695$5886999989;@96966999-=9969999666O379",
"qrrqr4;prrrrrrrr0%0urrrrrtw@tyrrrerrqy:*urrrrrry=:urtqtqyqyq+0tt",
"098803:u988888880%000998880@re98998890;&r888888q;:t888889909+009",
"000qq3;u00000q00w$0q000000w@rrq00q000q:*y000000q-:yq00q000q0@0q0",
"=-===$+;========*o*==--====X==-=-===--+o-=---=-=++=======-=*X*-=",
"o;;;:;;;::-.;:;:-:;;;+=;::-::-:-$O;:-:;;;;$o;;;;::;;;;o;;;;;;;;;",
"=prrttttttqOiytrtrttq=0utttytryy:-iyyryyty:-ptttryytrw#irrttttyq",
"=y899888869ouq8999990=0e88888990;-r8998890;-t688888696#i89998809",
"=u0000q0000ouq0000w00*0r000000qq;-y090000q:-y000q00009#i00w000q0",
"&8666666663o996666663*4666666666*&96666666=*9666666663@066666663",
"+@@@#@o#@@$+###@@.+@#@@@@@@o@@@#@@##@@O.##@@##@@Oo@@@@O@@@@@ O#@",
"qrrqq3=tqqqqqqqq0%6qqqrqqr0$0rqqqqqqer:$rqqqqqqr:-rqrrqrqrr0O8rq",
"888003;u008898000%0w0988080@tr8900880q:*r808080q;:t0999088q9@009",
"888803:i998888886%0w0988999@tq89868890;%t888886w-:r888868808@008",
"80990<=q999609996$609999996@0969999999;*q9996990=:w699999996@608",
"$****@O****%%*%**o$**$***%%X%***%%*%**+o**%%****OO****$****$.$&%",
"%0000000096O900009906=400900000w:*00090090:%0900000906@000900006",
"=uqtqtrrrrwouytqrrrtw=0irrrreret:-iqrerrrt:=urrrrrrrr9$perrrrrrw",
"=y888889699oyq0999889=0q88888880;=r8888880:-t888888889#u69988806",
"=uq00q000q0Xuq000q000=0r0000q00q;;t0000qqq--yq0q00q009#u0qqq00e0",
"O;--------= ;-----;==O==--------@O----;---+O---------=.:---=---=",
"%&%%%$o%%%%%%%%%%o#*%%%%%%%o%%%%%%%%%%+.%%%%%%%%+O%%%%%%%%%% $%%",
"ryyry5;prtttytyrq*0yyttrytq$yuttrytryt>%ittytttu:>prtyyyyyyr+eyt",
"888803:u888888889%0q8899880#yq88899990:%r888886q-:y688886606@009",
"0900q3;u000000000%0q00w009w+rq0000000q:*t000000e-:y0000000q0+q00",
"99689<-0969696965$406676995@9996969969=%06699669=-0669666865@596"
};
